<svg width="84" height="48" viewBox="0 0 84 48" fill="none" xmlns="http://www.w3.org/2000/svg">
<path d="M0 24C0 10.7452 10.7452 0 24 0H60C73.2548 0 84 10.7452 84 24C84 37.2548 73.2548 48 60 48H24C10.7452 48 0 37.2548 0 24Z" fill="#FEE500"/>
<path fill-rule="evenodd" clip-rule="evenodd" d="M23.9999 15.5996C18.6975 15.5996 14.3999 18.9345 14.3999 23.0486C14.3999 25.6054 16.0618 27.8618 18.594 29.2036L17.5284 33.1109C17.4346 33.4573 17.8271 33.7322 18.129 33.5319L22.7978 30.4367C23.1924 30.4751 23.5924 30.4964 23.9999 30.4964C29.3012 30.4964 33.5999 27.1615 33.5999 23.0486C33.5999 18.9345 29.3012 15.5996 23.9999 15.5996Z" fill="black"/>
<path d="M42.601 17.301H52.784V22.469H42.601V17.301ZM44.437 21.007H50.931V18.763H44.437V21.007ZM40.867 25.461V23.965H54.501V25.461H48.602V28.283H46.766V25.461H40.867ZM42.567 26.685H44.403V29.541H53.056V31.037H42.567V26.685ZM67.971 16.706V31.241H66.135V16.706H67.971ZM64.418 21.262C64.418 23.319 62.667 24.866 60.355 24.866C58.043 24.866 56.292 23.319 56.292 21.262C56.292 19.205 58.043 17.658 60.355 17.658C62.667 17.658 64.418 19.205 64.418 21.262ZM58.111 21.262C58.111 22.503 59.029 23.37 60.355 23.37C61.681 23.37 62.599 22.503 62.599 21.262C62.599 20.021 61.681 19.154 60.355 19.154C59.029 19.154 58.111 20.021 58.111 21.262ZM55.578 28.419V26.923C58.842 26.923 62.276 26.787 65.319 26.277L65.54 27.722C62.65 28.181 59.437 28.419 55.578 28.419Z" fill="black"/>
</svg>
